<svg width="793" height="564" fill="none" xmlns="http://www.w3.org/2000/svg"><path d="M423.52 671.956c90.339-1.303 177.879-43.522 248.915-106.363 51.346-45.476 96.323-104.084 114.371-174.739 18.145-70.655-4.729-130.891-53.566-179.731-45.17-45.042-110.704-48.623-161.085-86.067-36.676-27.242-61.577-85.09-104.334-96.27-39.186-10.31-75.379 9.334-107.422 36.902-32.044 27.567-57.813 49.165-89.085 77.71-25.19 23.009-53.566 41.351-83.872 54.158-55.304 23.443-120.452 31.366-158.865 81.834C-.475 317.703-6.46 373.814 6.474 422.003c12.934 48.189 42.757 88.781 77.696 120.147 91.111 81.943 223.145 131.542 339.35 129.806z" fill="#E3E6E8"/><path d="M662.5 431.734c-28.2 31.003-73.8 2.753-99.2-28.973-4.5-5.505-7.6-12.894-8.9-21.151-5.8-39.839 37.6-49.546 38.9-85.328.6-15.646-7.5-28.539-13.5-41.578-13.6-29.553-17.5-67.074-14.6-102.422 2.9-35.348 12-69.103 22.7-101.264 8.7-26.221 24.3-56.064 43.9-49.69 12.6 4.056 20.7 22.31 24.4 40.274 5 24.772 4.3 51.283.9 76.636-1.5 11.154-3.5 22.889-1.4 33.899 5.3 28.249 32.6 34.624 42.5 59.976 9.9 25.497-1.9 57.513-13.1 82.43-9.6 21.441-15.3 34.769-9.1 52.878 1.7 4.78 4 9.126 6.9 12.458 6.1 7.534 17.3 30.423-20.4 71.855z" fill="#F3AF47"/><path d="M625.1 74.342c0 8.837-6.1 498.205-6.1 498.205l24-1.303-17.9-496.902z" fill="#7C4A0F"/><path d="M626.6 417.682L577 340.901l53.9 70.262c.9 1.014 1.3 2.753 1.1 4.346-.2 1.594-1 2.897-2.1 3.477-1.1.579-2.3.145-3.1-1.014l-.2-.29zm-4.5-220.201L602 140.982l24.1 53.312c.8 1.014 1.1 2.607.7 3.911-.4 1.449-1.4 2.318-2.4 2.173-1.1-.145-1.9-1.159-2.2-2.752l-.1-.145zm5.5 117.779L678 211.968 632.5 320.04c-.9 2.028-2.7 2.753-4.1 1.449-1.4-1.304-1.8-3.911-1-5.94l.2-.289z" fill="#7C4A0F"/><path d="M168.5 521.408c-19.1 21.006-50 1.884-67.1-19.557-3-3.766-5.1-8.837-6-14.342-3.9-26.946 25.4-33.61 26.3-57.658.4-10.575-5.1-19.267-9.2-28.105-9.2-20.136-11.8-45.488-9.9-69.537 1.9-24.048 8.1-46.792 15.4-68.523 5.9-17.819 16.5-37.956 29.7-33.61 8.5 2.753 14 15.067 16.5 27.236 3.4 16.66 2.9 34.624.6 51.863-1 7.533-2.4 15.356-1 22.889 3.6 19.123 22.1 23.469 28.8 40.709 6.7 17.239-1.3 38.969-8.8 55.774-6.4 14.487-10.4 23.469-6.2 35.928 1.2 3.187 2.8 6.084 4.7 8.547 4.1 4.926 11.7 20.427-13.8 48.386z" fill="#F8CD99"/><path d="M141.8 273.972c0 6.374-6.1 313.207-6.1 313.207l17.6 2.173-11.5-315.38z" fill="#7C6242"/><path d="M146.1 459.549l35.8-54.905-38.9 50.269c-.9 1.159-.9 3.188-.1 4.491.8 1.304 2.1 1.449 3.1.29l.1-.145zm-6.9-95.903l-14.6-41.867 17.4 39.549c.4 1.159.1 2.463-.6 3.187-.7.724-1.7.435-2.2-.579.1 0 0-.29 0-.29z" fill="#7C6242"/><path d="M144.5 450.857l35.2-76.491-35.2 76.491z" fill="#9C4F5F"/></svg>